<svg version="1.2" xmlns="http://www.w3.org/2000/svg" viewBox="0 0 1080 1350" width="1080" height="1350">
  <rect width="1080" height="1350" fill="#3D2B3D"/>
  <path fill-rule="evenodd" fill="#FFFFFF" d="m189.5 358.49c19.09 0.3 23.32 0.67 32 2.77 5.5 1.33 13.82 3.68 18.5 5.21 4.68 1.54 13 4.91 18.5 7.49 5.5 2.58 14.05 7.2 19 10.26 4.95 3.06 13.27 8.88 18.5 12.92 5.23 4.04 13.95 11.62 19.38 16.85 5.44 5.23 14.03 14.24 19.09 20.01 5.06 5.77 12.7 15 16.97 20.5 4.28 5.5 12.16 16.52 17.53 24.5 5.36 7.98 13.81 21.25 18.76 29.5 4.95 8.25 12.14 20.62 15.98 27.5 3.84 6.87 11.7 21.5 17.49 32.5 5.78 11 17.61 34.17 26.28 51.5 8.68 17.33 20.73 40.95 26.79 52.5 6.06 11.55 14.14 26.4 17.97 33 3.83 6.6 9.28 15.49 12.11 19.75 2.83 4.26 5.45 7.41 5.81 7 0.36-0.41 10.33-26.17 22.16-57.25 11.83-31.08 35.07-92.05 51.66-135.5 16.58-43.45 33.15-86.98 43.52-114.49h32.75c21.17-0.01 32.75 0.34 32.75 0.99 0 0.55-3.56 6.51-15.81 25.5l-0.63 106c-0.34 58.3-0.57 139.52-0.5 180.5 0.12 70.59 0.23 74.76 2.03 79.5 1.04 2.75 4.61 8.6 7.92 13 3.32 4.4 6.02 8.56 6.01 9.25-0.02 0.98-9.1 1.25-42.02 1.25-32.76 0-42.07-0.27-42.32-1.25-0.18-0.69 2.41-4.68 5.75-8.88 3.34-4.2 7.42-10.27 12.07-19.37l0.25-168.25c0.22-149.1 0.08-168.16-1.25-167.5-0.82 0.41-4.7 8.62-8.61 18.25-3.92 9.62-10.04 25.15-13.61 34.5-3.57 9.35-9.41 25.1-12.98 35-3.57 9.9-11.14 31.27-16.82 47.5-5.67 16.23-13.47 38.27-17.32 49-3.85 10.73-9.7 26.7-13 35.5-3.3 8.8-9.19 23.87-13.1 33.5-4.06 10.03-7.1 18.99-7.11 21-0.01 2.66 1.94 6.62 8.14 16.5 4.48 7.15 11.11 17.27 14.73 22.5 3.62 5.23 9.27 13.1 12.55 17.5 3.29 4.4 10.26 13.17 15.5 19.5 5.23 6.33 15.62 17.58 23.07 25.01 7.46 7.43 17.16 16.39 21.56 19.91 4.4 3.53 13.17 9.84 19.5 14.03 6.33 4.18 16 9.91 21.5 12.72 5.5 2.81 14.27 6.7 19.5 8.64 5.23 1.94 14 4.67 19.5 6.07 5.5 1.39 14.27 3.24 19.5 4.12 5.23 0.87 17.15 1.86 26.5 2.19 10.65 0.38 21.29 0.16 28.5-0.59 6.33-0.67 16.67-2.11 23-3.21 6.33-1.1 17.58-3.61 25-5.57 7.42-1.97 14.63-3.73 16-3.92 2.19-0.3 2.31-0.17 1 1.06-0.83 0.77-7.8 3.7-15.5 6.52-7.7 2.82-15.8 5.78-18 6.57-2.2 0.8-8.5 2.81-14 4.48-5.5 1.67-14.95 4.15-21 5.51-6.05 1.36-17.3 3.46-25 4.66-11.72 1.84-18.23 2.19-40 2.21-24.33 0.01-26.84-0.16-39-2.67-7.15-1.47-18.17-4.46-24.5-6.63-6.33-2.17-15.1-5.64-19.5-7.69-4.4-2.06-12.73-6.55-18.5-9.98-5.77-3.43-15.67-10.17-22-14.99-6.33-4.81-15.77-12.44-21-16.96-5.23-4.51-14.23-13.11-20-19.11-5.77-6-14.26-15.4-18.86-20.89-4.59-5.49-12.74-15.84-18.1-22.99-5.36-7.15-13.79-19.08-18.72-26.5-4.93-7.42-12.36-19.13-16.51-26-4.15-6.88-11.69-19.92-16.76-29-5.07-9.08-26.7-51.6-48.06-94.5-21.36-42.9-43.63-86.77-49.49-97.5-5.86-10.73-13.33-24-16.6-29.5-3.27-5.5-7.73-12.14-9.92-14.75-2.19-2.61-4.32-4.75-4.73-4.75-0.41 0-0.64 71.44-0.26 317.5l2.92 6c1.61 3.3 5.89 10.05 9.52 15 3.62 4.95 6.58 9.34 6.58 9.75-0.01 0.41-11.71 0.75-26.01 0.75-16.67 0-26-0.36-26-1 0-0.55 2.32-4.04 5.16-7.75 2.84-3.71 6.55-9.67 11.34-19.75l-0.8-351-8.74-11.5c-4.81-6.33-12.33-15.55-16.71-20.5-4.38-4.95-11.51-12.16-15.86-16.02-4.34-3.87-10.14-8.86-12.89-11.09-2.75-2.23-7.7-5.88-11-8.1-3.3-2.22-10.27-6.32-15.5-9.12-5.22-2.79-13.89-6.67-19.25-8.62-5.36-1.95-15.26-4.67-22-6.04-8.42-1.71-15.53-2.49-22.75-2.49-5.77 0-13.42 0.45-17 1.01-3.57 0.56-12.8 2.39-20.5 4.06-10.17 2.21-14.27 2.74-15 1.94-0.68-0.76-0.52-1.42 0.5-2.07 0.83-0.53 5.78-2.29 11-3.91 5.23-1.61 14-4.05 19.5-5.41 5.5-1.36 13.38-2.96 17.5-3.56 4.13-0.59 8.63-1.27 10-1.5 1.38-0.24 12.4-0.28 24.5-0.09zm627 325.43l-4.25 4.54c-2.34 2.5-5.44 6.45-6.9 8.79-1.46 2.34-3.49 6.72-4.52 9.75-1.76 5.2-1.86 10.3-1.83 182l-3 1.5c-1.65 0.83-7.39 2.14-12.75 2.92-5.36 0.78-15.26 1.68-34.25 2.58l-0.5-189.5-4.7-8c-3.41-5.81-5.71-8.55-8.4-10-2.04-1.1-3.91-2.56-4.17-3.25-0.37-0.99 8.54-1.26 85.27-1.33zm-18.34 262.03c0.43 0.3 0.9 29.17 1.34 127.76l5.68 7.4c3.12 4.06 7.27 8.97 9.21 10.89 1.95 1.92 3.33 3.84 3.08 4.25-0.26 0.41-19.59 0.75-42.97 0.75-27.67 0-42.5-0.35-42.5-1 0-0.55 3.18-5.16 7.06-10.25 4.59-6 7.57-11 8.49-14.25 1.05-3.7 1.4-10.85 1.35-27.5-0.05-12.38-0.33-36.45-0.63-53.5-0.37-21.14-0.2-31.64 0.53-33 0.89-1.66 5.14-2.86 24.83-7.05 13.06-2.77 24.1-4.8 24.53-4.5z"/>
  <path fill-rule="evenodd" fill="#B8935A" d="m743 240.57c7.98 0.21 19 1.08 24.5 1.92 5.5 0.84 13.49 2.42 17.75 3.52 4.26 1.09 10.56 2.94 14 4.11 3.44 1.16 11.65 4.72 18.25 7.91 6.6 3.18 15.83 8.61 20.5 12.05 4.67 3.45 11.15 8.78 14.39 11.85 3.23 3.06 8.86 9.39 12.5 14.07 3.65 4.68 8.95 13 11.79 18.5 2.85 5.5 6.54 14.05 8.21 19 1.67 4.95 3.98 13.5 5.13 19 1.16 5.5 2.36 15.85 2.68 23 0.34 7.82 0.09 16.58-0.62 22-0.66 4.95-2.1 12.6-3.2 17-1.11 4.4-2.69 10.02-3.51 12.5-0.82 2.48-3.52 8.77-6 14-2.47 5.23-6.9 13.1-9.84 17.5-2.93 4.4-8.64 11.81-12.68 16.46-4.04 4.65-11.62 12-16.85 16.33-5.23 4.33-13.33 10.24-18 13.14-4.67 2.9-15.02 8.3-23 12-7.98 3.7-16.65 7.71-19.27 8.9-2.62 1.19-4.77 2.4-4.76 2.67 0 0.27 4.18 1.35 9.27 2.39 5.09 1.03 13.99 3.42 19.76 5.29 5.77 1.88 15.45 5.79 21.5 8.7 6.05 2.91 14.15 7.31 18 9.79 3.85 2.47 9.92 6.91 13.5 9.85 3.58 2.94 9.42 8.3 13 11.91 3.58 3.62 8.57 9.27 11.1 12.57 2.53 3.3 6.82 9.6 9.53 14 2.71 4.4 6.21 10.7 7.78 14 1.56 3.3 4.15 9.6 5.75 14 1.6 4.4 3.61 10.7 4.46 14 0.85 3.3 2.4 10.73 3.44 16.5 1.04 5.77 2.18 15.67 2.53 22 0.35 6.43 0.12 16.79-0.51 23.5-0.63 6.6-2.31 17.17-3.73 23.5-1.42 6.33-4.05 15.33-5.83 20-1.79 4.67-4.71 11.42-6.5 15-1.78 3.58-4.85 9.2-6.82 12.5-1.97 3.3-5.79 8.92-8.48 12.5-2.69 3.58-7.66 9.42-11.03 13-3.38 3.58-9.3 9.25-13.16 12.61-3.87 3.36-10.18 8.33-14.03 11.04-3.85 2.72-10.15 6.7-14 8.86-3.85 2.16-9.59 5.17-18.5 9.49l0.06-44.5 4.14-6.5c2.28-3.58 6.13-10.77 8.56-16 2.43-5.23 5.75-13.55 7.37-18.5 1.62-4.95 3.8-12.6 4.84-17 1.04-4.4 2.6-13.06 3.46-19.25 0.97-6.94 1.56-18.25 1.55-29.5-0.01-10.04-0.66-22.98-1.43-28.75-0.78-5.77-2.32-14.33-3.42-19-1.1-4.67-3.2-12.33-4.67-17-1.48-4.67-5.07-13.45-8-19.5-2.93-6.05-7.04-13.57-9.14-16.7-2.1-3.14-6.33-8.77-9.39-12.5-3.07-3.74-9.21-9.72-13.65-13.3-4.45-3.58-11.84-8.39-16.43-10.69-4.59-2.31-12.62-5.53-17.85-7.16-5.23-1.63-11.98-3.74-15-4.68-4.2-1.31-10.27-1.8-46-2.47l-0.01-18.5 10.75-0.75c5.92-0.42 14.59-1.6 19.26-2.64 4.67-1.04 12.55-3.55 17.5-5.59 4.95-2.03 11.7-5.32 15-7.3 3.3-1.98 8.48-5.39 11.5-7.58 3.02-2.19 9.56-8.07 14.53-13.06 4.97-4.99 11.34-12.45 14.16-16.58 2.83-4.12 6.94-11.1 9.16-15.5 2.21-4.4 5.38-12.05 7.05-17 1.66-4.95 3.9-13.27 4.98-18.5 1.08-5.23 2.45-13.89 3.04-19.25 0.59-5.36 1.08-14.25 1.08-19.75 0-5.5-0.47-14.39-1.04-19.75-0.58-5.36-1.91-13.8-2.97-18.75-1.05-4.95-3.22-12.82-4.81-17.5-1.59-4.68-4.48-11.65-6.42-15.5-1.94-3.85-6.19-10.6-9.45-15-3.26-4.4-8.37-10.16-11.37-12.8-2.99-2.64-8.59-6.73-12.44-9.1-3.85-2.36-9.92-5.48-13.5-6.91-3.58-1.44-9.88-3.33-14-4.19-4.38-0.92-12.49-1.58-19.5-1.59-9.63-0.01-13.98 0.49-22 2.54-5.5 1.41-14.05 4.57-19 7.04-5.34 2.66-12.25 7.25-17 11.29-4.4 3.75-10.29 9.94-13.09 13.77-2.81 3.82-6.24 9.2-7.64 11.95-1.39 2.75-3.77 8.82-5.27 13.5-2.16 6.73-2.84 11.1-3.24 21-0.31 7.78-0.03 15.33 0.75 20 0.69 4.13 1.93 9.07 2.75 11 0.82 1.93 4.12 7.32 7.33 12 3.21 4.68 5.84 9.18 5.84 10 0 0.82-2.01 3.07-4.45 5-2.44 1.93-7.38 4.96-10.96 6.75-3.82 1.9-9.52 3.72-13.77 4.38-6.13 0.96-8.26 0.87-13.75-0.55-3.58-0.92-8.71-3.12-11.42-4.88-2.7-1.76-6.53-5.05-8.5-7.31-1.97-2.25-4.67-6.3-6-9-1.34-2.69-3.04-7.14-3.78-9.89-0.75-2.77-1.36-9.91-1.37-16 0-6.27 0.68-14.23 1.58-18.5 0.87-4.12 2.75-10.87 4.18-15 1.43-4.12 4.15-10.43 6.04-14 1.89-3.57 5.99-10.04 9.1-14.37 3.12-4.33 9.5-11.53 14.18-16 4.68-4.47 12.33-10.67 17-13.79 4.67-3.11 12.09-7.46 16.49-9.68 4.4-2.21 12.27-5.68 17.5-7.7 5.23-2.02 14.67-4.93 21-6.47 6.33-1.55 15.55-3.31 20.5-3.91 4.95-0.61 10.58-1.28 12.5-1.5 1.92-0.23 10.02-0.23 18-0.01zm-400 130.55c9.63-0.07 21.32 0.34 26 0.9 4.68 0.56 12.77 1.96 18 3.12 5.23 1.15 14.45 3.9 20.5 6.1 6.05 2.21 14.15 5.58 18 7.49 3.85 1.92 10.6 5.87 15 8.79 4.4 2.91 11.78 8.83 16.39 13.14 4.62 4.31 10.94 10.99 14.04 14.84 3.1 3.85 7.85 11.05 10.56 16 2.71 4.95 6.33 12.6 8.06 17 1.73 4.4 4.38 13.18 5.9 19.5 1.53 6.38 3.1 16.62 3.54 23 0.43 6.32 0.41 16-0.04 21.5-0.45 5.5-1.56 13.6-2.48 18-0.92 4.4-3.14 12.05-4.94 17-1.79 4.95-5.29 13.05-7.77 18-2.48 4.95-8.06 13.69-12.39 19.41-4.33 5.73-8.32 11-8.87 11.72-0.55 0.71-1.45 1.3-2 1.32-0.55 0.01-5.39-8.63-10.75-19.21-5.36-10.58-12.42-24.41-21.6-42.24l1.49-10c1.1-7.34 1.38-15.46 1.06-30.5-0.28-12.94-1.05-23.82-2.09-29.5-0.91-4.95-2.97-13.27-4.57-18.5-1.61-5.23-5.07-13.77-7.69-19-2.63-5.23-7.3-12.65-10.38-16.5-3.09-3.85-8.1-9.25-11.14-12-3.04-2.75-8.63-6.83-12.43-9.07-3.79-2.23-9.94-5.27-13.65-6.75-3.71-1.47-10.69-3.36-15.5-4.19-4.81-0.83-12.8-1.5-17.75-1.48-4.95 0.02-10.69 0.48-12.75 1.01-3.43 0.9-4.03 0.73-7-2-1.79-1.64-5.59-4.9-8.45-7.25-2.86-2.35-5.23-4.5-5.27-4.77-0.04-0.27 2.52-1.08 5.7-1.79 3.17-0.72 8.47-1.67 11.77-2.13 3.3-0.46 13.88-0.89 23.5-0.96zm-118.79 44.87l4.14 3.24c2.28 1.78 8.93 7.97 25.4 24.27l-1.89 7c-1.04 3.85-2.38 11.27-2.98 16.5-0.8 6.93-0.8 12 0.01 18.75 0.61 5.09 1.92 11.39 2.9 14 0.99 2.61 4.7 8.98 14.71 23.56l-5 4.35c-2.75 2.39-7.47 5.65-10.5 7.23-3.02 1.57-7.97 3.43-11 4.13-3.02 0.69-8.43 1.04-12 0.79-4.11-0.3-8.61-1.45-12.25-3.14-3.16-1.47-7.89-4.64-10.5-7.04-2.61-2.4-6.2-7.02-7.97-10.25-1.77-3.23-3.9-9.03-4.73-12.88-0.83-3.85-1.52-9.93-1.53-13.5-0.01-3.57 0.64-10.55 1.44-15.5 0.79-4.95 2.87-13.05 4.61-18 1.73-4.95 4.3-11.25 5.69-14 1.39-2.75 4.6-8.13 7.13-11.96 2.54-3.83 6.79-9.35 9.46-12.26zm79.34 45.01c0.25 0 0.37 4.16 0.08 18.5l-0.56-8.5c-0.31-4.68-0.43-8.84-0.27-9.25 0.17-0.41 0.51-0.75 0.75-0.75zm63.28 176.46l13.64 27.02c7.5 14.86 13.5 27.34 13.34 27.72-0.17 0.39-2.78-0.84-5.8-2.74-3.03-1.89-9.1-4.84-13.5-6.55-4.4-1.71-13.18-4.61-19.5-6.44-6.33-1.83-13.46-3.47-15.85-3.65-2.4-0.17-4.5-0.55-4.68-0.82-0.18-0.28-0.47-5.08-0.65-10.67-0.18-5.59-0.1-10.34 0.18-10.54 0.27-0.21 3.87-1.43 8-2.73 4.12-1.29 11.39-4.21 16.16-6.47zm309.52 27.19c0.47 0.25 0.81 5.39 0.75 11.4-0.05 6.02-0.44 11.13-0.85 11.35-0.41 0.22-0.75-4.91-0.75-11.41 0-6.49 0.38-11.6 0.85-11.34zm-229.98 121.34c0.35 0 4.02 5.07 8.16 11.25 4.14 6.19 8.3 12.38 9.23 13.75 0.94 1.38 4.68 6.55 8.31 11.5 3.63 4.95 10.65 13.95 15.59 20 4.94 6.05 12.89 15.17 17.67 20.25 7.07 7.55 8.56 9.67 8.06 11.5-0.34 1.24-2.17 6.08-4.07 10.75-1.9 4.68-5.86 12.78-8.79 18-2.93 5.23-7.51 12.43-10.17 16-2.66 3.58-9.11 10.94-14.34 16.36-5.24 5.42-12.22 12-15.52 14.62-3.3 2.61-9.37 7.01-13.5 9.77-4.12 2.76-12.45 7.51-18.5 10.56-6.05 3.05-14.82 6.96-19.5 8.69-4.67 1.72-14.35 4.63-21.5 6.44-7.15 1.82-16.37 3.83-20.5 4.47-4.12 0.64-14.25 1.58-22.5 2.1-11.4 0.72-18.48 0.61-29.5-0.46-7.97-0.78-18.1-2.15-22.5-3.06-4.4-0.9-11.37-2.54-15.5-3.64-4.12-1.1-11.77-3.58-17-5.52-5.22-1.94-13.32-5.59-18-8.11-4.67-2.52-10.97-6.2-14-8.16-3.02-1.97-8.2-5.59-11.5-8.04-3.3-2.46-9.32-7.63-13.38-11.49-4.07-3.86-9.95-10.18-13.09-14.03-3.13-3.85-7.34-9.58-9.36-12.75-2.02-3.16-5.22-8.78-7.11-12.5-1.9-3.71-4.64-9.9-6.08-13.75-1.45-3.85-3.51-11.27-4.57-16.5-1.26-6.19-1.93-13.49-1.92-21 0.01-6.32 0.47-14.2 1.03-17.5 0.55-3.3 2.46-9.1 4.24-12.89 2.26-4.81 4.92-8.44 8.8-12 3.05-2.81 7.55-6.1 10-7.31 2.44-1.21 7.37-2.95 10.94-3.87 4.6-1.18 8.55-1.5 13.5-1.08 3.85 0.32 8.58 1.12 10.5 1.77 1.93 0.65 6.2 2.95 9.5 5.11 3.3 2.15 6.79 5.01 7.75 6.35 1.72 2.38 1.68 2.52-1.87 7.17-1.99 2.62-4.42 6.33-5.4 8.25-0.99 1.93-2.71 5.98-3.83 9-1.12 3.03-2.73 8.99-3.59 13.25-0.86 4.27-1.56 12.14-1.57 17.5 0 5.37 0.68 13.8 1.53 18.75 0.85 4.95 2.69 12.6 4.09 17 1.4 4.4 4.36 11.6 6.57 16 2.21 4.4 5.93 10.48 8.27 13.5 2.34 3.03 6.91 8.15 10.15 11.37 3.25 3.23 9.73 8.39 14.4 11.46 4.68 3.07 11.88 7.04 16 8.81 4.13 1.78 12 4.44 17.5 5.91 8.2 2.2 12.89 2.77 26 3.18 11.91 0.37 18.3 0.09 25-1.07 4.95-0.86 12.6-2.77 17-4.24 4.4-1.47 10.7-4.02 14-5.66 3.3-1.64 8.93-4.92 12.5-7.28 3.58-2.36 9.57-7.37 13.32-11.13 3.74-3.77 9.42-10.67 12.62-15.35 3.19-4.67 7.72-12.32 10.07-17 2.34-4.67 6.05-13.9 8.23-20.5 2.19-6.6 5.04-17.17 6.34-23.5 1.29-6.32 2.82-16.45 3.39-22.5 0.57-6.05 1.02-15.72 1.01-21.5-0.01-5.77-0.41-14.32-0.9-19-0.49-4.67-1.22-10.63-1.62-13.25-0.4-2.61-0.44-4.75-0.09-4.75z"/>
</svg>